<svg aria-hidden="true" style="position: absolute; width: 0; height: 0; overflow: hidden;" version="1.1" xmlns="http://www.w3.org/2000/svg" xmlns:xlink="http://www.w3.org/1999/xlink">
<defs>
<symbol id="icon-Frame" viewBox="0 0 32 32">
<path fill="none" stroke="#e25300" style="stroke: var(--color1, #e25300)" stroke-linejoin="round" stroke-linecap="round" stroke-miterlimit="4" stroke-width="2.4" d="M22.9 19.488c-1.253-0.702-2.178-1.87-2.575-3.25-0.27-0.939-0.838-1.764-1.618-2.352s-1.73-0.905-2.707-0.905c-0.977 0-1.927 0.318-2.707 0.905s-1.348 1.413-1.618 2.352c-0.397 1.38-1.322 2.548-2.575 3.25-0.78 0.425-1.396 1.097-1.751 1.91s-0.43 1.722-0.213 2.583c0.218 0.861 0.716 1.625 1.415 2.171s1.561 0.845 2.449 0.848c0.536 0 1.068-0.106 1.562-0.312 1.090-0.452 2.258-0.684 3.438-0.684s2.348 0.233 3.438 0.684c0.495 0.207 1.026 0.313 1.562 0.312 0.888-0.003 1.749-0.301 2.449-0.848s1.197-1.31 1.415-2.171c0.218-0.861 0.143-1.769-0.213-2.583s-0.972-1.486-1.751-1.91z"></path>
<path fill="#e25300" style="fill: var(--color1, #e25300)" d="M26 16c1.657 0 3-1.343 3-3s-1.343-3-3-3c-1.657 0-3 1.343-3 3s1.343 3 3 3z"></path>
<path fill="#e25300" style="fill: var(--color1, #e25300)" d="M6 16c1.657 0 3-1.343 3-3s-1.343-3-3-3c-1.657 0-3 1.343-3 3s1.343 3 3 3z"></path>
<path fill="#e25300" style="fill: var(--color1, #e25300)" d="M12 10c1.657 0 3-1.343 3-3s-1.343-3-3-3c-1.657 0-3 1.343-3 3s1.343 3 3 3z"></path>
<path fill="#e25300" style="fill: var(--color1, #e25300)" d="M20 10c1.657 0 3-1.343 3-3s-1.343-3-3-3c-1.657 0-3 1.343-3 3s1.343 3 3 3z"></path>
</symbol>
<symbol id="icon-Interface-Solid" viewBox="0 0 34 32">
<path fill="#e25300" style="fill: var(--color1, #e25300)" d="M16.8 0c-3.165 0-6.258 0.938-8.889 2.696s-4.682 4.257-5.893 7.181c-1.211 2.924-1.528 6.141-0.91 9.244s2.141 5.955 4.379 8.192c2.238 2.238 5.089 3.761 8.192 4.379s6.321 0.301 9.244-0.91c2.924-1.211 5.423-3.262 7.181-5.893s2.696-5.725 2.696-8.889c-0.005-4.242-1.692-8.309-4.691-11.309s-7.067-4.687-11.309-4.691zM16.8 29.333c-2.637 0-5.215-0.782-7.408-2.247s-3.902-3.548-4.911-5.984c-1.009-2.436-1.273-5.117-0.759-7.704s1.784-4.962 3.649-6.827c1.865-1.865 4.24-3.135 6.827-3.649s5.267-0.25 7.704 0.759 4.519 2.718 5.984 4.911c1.465 2.193 2.247 4.771 2.247 7.408-0.004 3.535-1.41 6.924-3.91 9.424s-5.889 3.906-9.424 3.91z"></path>
<path fill="#e25300" style="fill: var(--color1, #e25300)" d="M22.099 14.25l-6.023-4.204c-0.32-0.223-0.695-0.354-1.084-0.379s-0.778 0.057-1.123 0.238c-0.346 0.18-0.635 0.452-0.838 0.786s-0.309 0.716-0.309 1.106v8.408c-0 0.39 0.106 0.773 0.309 1.107s0.492 0.605 0.838 0.786 0.735 0.263 1.124 0.237c0.389-0.025 0.764-0.156 1.084-0.38l6.023-4.205c0.282-0.197 0.512-0.458 0.671-0.763s0.242-0.643 0.242-0.986c0-0.344-0.083-0.682-0.242-0.987s-0.389-0.566-0.671-0.763z"></path>
</symbol>
<symbol id="icon-Icons" viewBox="0 0 33 32">
<path fill="none" stroke="#fff" style="stroke: var(--color1, #fff)" stroke-linejoin="round" stroke-linecap="round" stroke-miterlimit="10" stroke-width="2" d="M16.5 4l-15 8 15 8 15-8-15-8z"></path>
<path fill="none" stroke="#fff" style="stroke: var(--color1, #fff)" stroke-linejoin="round" stroke-linecap="round" stroke-miterlimit="10" stroke-width="2" d="M7.5 15.2v6.8c0 2.2 4 5 9 5s9-2.8 9-5v-6.8"></path>
<path fill="none" stroke="#fff" style="stroke: var(--color1, #fff)" stroke-linejoin="round" stroke-linecap="round" stroke-miterlimit="10" stroke-width="2" d="M31.5 12v13"></path>
</symbol>
<symbol id="icon-Frame-2" viewBox="0 0 32 32">
<path fill="none" stroke="#fff" style="stroke: var(--color1, #fff)" stroke-linejoin="round" stroke-linecap="round" stroke-miterlimit="10" stroke-width="1.6" d="M16.707 15.332l0.224-0.221c0.431-0.431 0.646-1.003 0.646-1.57 0-0.57-0.214-1.139-0.646-1.57-0.862-0.862-2.276-0.862-3.14 0l-0.221 0.224-0.224-0.224c-0.862-0.862-2.276-0.862-3.138 0-0.434 0.431-0.648 1.001-0.648 1.57 0 0.567 0.214 1.139 0.648 1.57l3.248 3.248c0.063 0.063 0.165 0.063 0.228-0l3.024-3.026z"></path>
<path fill="none" stroke="#fff" style="stroke: var(--color1, #fff)" stroke-linejoin="round" stroke-linecap="round" stroke-miterlimit="10" stroke-width="1.6" d="M11.148 14.656l1.096 1.085"></path>
<path fill="none" stroke="#fff" style="stroke: var(--color1, #fff)" stroke-linejoin="round" stroke-linecap="round" stroke-miterlimit="10" stroke-width="1.6" d="M12.752 16.247l0.135 0.128"></path>
<path fill="#fff" style="fill: var(--color1, #fff)" d="M21.763 12.827h-0.016l-0.904 0.488-0.136-0.536 1.135-0.608h0.6v5.197h-0.68v-4.541z"></path>
<path fill="none" stroke="#fff" style="stroke: var(--color1, #fff)" stroke-linejoin="round" stroke-linecap="round" stroke-miterlimit="10" stroke-width="1.6" d="M13.7 21.635l0.020 0.027 2.1 2.9c0.068 0.090 0.295 0.084 0.36-0.013l2.113-2.88 0.027-0.033h7.867c0.427 0 0.773-0.347 0.773-0.773v-12.713c0-0.427-0.347-0.773-0.773-0.773h-20.373c-0.427 0-0.773 0.347-0.773 0.773v12.713c0 0.427 0.347 0.773 0.773 0.773h7.887z"></path>
</symbol>
<symbol id="icon-Frame-1" viewBox="0 0 32 32">
<path fill="#fff" style="fill: var(--color1, #fff)" d="M26.194 20.481v-12.219c0-0.831-0.675-1.5-1.5-1.5h-17.387c-0.831 0-1.5 0.675-1.5 1.5v12.219c0 0.831 0.675 1.5 1.5 1.5h5.444v2.325h-2.012c-0.256 0-0.469 0.212-0.469 0.469s0.213 0.469 0.469 0.469h10.519c0.256 0 0.469-0.212 0.469-0.469s-0.212-0.469-0.469-0.469h-2.006v-2.325h5.444c0.831 0 1.5-0.675 1.5-1.5zM6.744 20.481v-12.219c0-0.312 0.256-0.562 0.563-0.562h17.388c0.312 0 0.562 0.256 0.562 0.562v12.219c0 0.312-0.256 0.562-0.562 0.562h-17.381c-0.319 0-0.569-0.25-0.569-0.562zM18.312 24.306h-4.625v-2.325h4.625v2.325z"></path>
<path fill="#fff" style="fill: var(--color1, #fff)" d="M16 18.944c0.025 0 0.056 0 0.081-0.006 0.012 0 0.025-0.006 0.037-0.006h0.006c0.013-0.006 0.025-0.006 0.031-0.013h0.006c0.013-0.006 0.019-0.006 0.031-0.012 0 0 0.006 0 0.006-0.006 0.012-0.006 0.031-0.012 0.044-0.025 0.006-0.006 0.012-0.006 0.012-0.013 0.012-0.012 0.031-0.019 0.044-0.031 0.019-0.013 1.644-1.369 4.338-1.369 0.619 0 1.25 0.069 1.887 0.212 0.138 0.031 0.281-0.006 0.394-0.094s0.175-0.225 0.175-0.363v-6.737c0-0.219-0.15-0.413-0.369-0.456-0.7-0.156-1.406-0.231-2.087-0.231-2.375 0-4 0.919-4.638 1.362-0.644-0.444-2.269-1.362-4.638-1.362-0.687 0-1.388 0.081-2.088 0.231-0.212 0.050-0.369 0.238-0.369 0.456v6.737c0 0.144 0.062 0.275 0.175 0.363s0.256 0.125 0.394 0.094c0.637-0.137 1.269-0.212 1.887-0.212 2.688 0 4.313 1.344 4.338 1.369 0.081 0.075 0.188 0.112 0.3 0.112zM22.162 10.869v5.788c-0.512-0.081-1.019-0.125-1.519-0.125-1.925 0-3.356 0.606-4.169 1.069v-5.625c0.475-0.338 1.969-1.244 4.169-1.244 0.494 0 1.006 0.044 1.519 0.137zM9.838 16.656v-5.788c0.512-0.094 1.019-0.137 1.519-0.137 2.206 0 3.694 0.906 4.169 1.244v5.625c-0.812-0.462-2.25-1.069-4.169-1.069-0.494 0-1.006 0.037-1.519 0.125z"></path>
<path fill="#fff" style="fill: var(--color1, #fff)" d="M18.144 15.281c0.119 0 0.238-0.044 0.331-0.138l0.725-0.725 0.575 0.575c0.088 0.088 0.206 0.138 0.331 0.138 0.050 0 0.094-0.006 0.144-0.025 0.169-0.056 0.288-0.194 0.319-0.369l0.375-2.188c0.025-0.15-0.025-0.3-0.131-0.412-0.106-0.106-0.262-0.156-0.412-0.131l-2.188 0.375c-0.175 0.031-0.312 0.15-0.369 0.319s-0.006 0.35 0.112 0.475l0.575 0.575-0.719 0.731c-0.181 0.181-0.181 0.481 0 0.662 0.094 0.094 0.212 0.138 0.331 0.138zM19.906 13.050l-0.112 0.644-0.538-0.538 0.65-0.106z"></path>
</symbol>
<symbol id="icon-icons-1" viewBox="0 0 32 32">
<path fill="none" stroke="#fff" style="stroke: var(--color1, #fff)" stroke-linejoin="miter" stroke-linecap="butt" stroke-miterlimit="10" stroke-width="1.28" d="M19.358 24.458h1.064c2.387 0 4.323-1.936 4.323-4.323v-7.449c0-1.921-1.253-3.549-2.986-4.113-0.109-0.036-0.194-0.121-0.231-0.23l-0.738-2.186c-0.082-0.245-0.398-0.311-0.573-0.12l-2.004 2.194c-0.073 0.080-0.172 0.131-0.28 0.131h-3.72c-0.108 0-0.207-0.051-0.28-0.131l-0.001-0.001-2.002-2.193c-0.174-0.191-0.49-0.125-0.572 0.12l-0.743 2.197c-0.036 0.108-0.121 0.193-0.228 0.229-1.716 0.573-2.953 2.193-2.953 4.102v7.449c0 2.388 1.936 4.323 4.323 4.323h4.981"></path>
<path fill="none" stroke="#fff" style="stroke: var(--color1, #fff)" stroke-linejoin="round" stroke-linecap="round" stroke-miterlimit="4" stroke-width="1.28" d="M19.358 24.457v-5.461h1.297l0.472-2.194h-1.769v-1.088c0-0.223 0.059-0.403 0.177-0.539s0.271-0.204 0.458-0.204h1.078v-2.602h-1.468c-0.901 0-1.603 0.222-2.108 0.666s-0.757 1.056-0.757 1.836v1.931h-0.925v2.194h0.925v5.461"></path>
</symbol>
<symbol id="icon-icons-2" viewBox="0 0 33 32">
<path fill="none" stroke="#fff" style="stroke: var(--color1, #fff)" stroke-linejoin="miter" stroke-linecap="butt" stroke-miterlimit="10" stroke-width="1.28" d="M24.94 12.139v7.449c0 2.387-1.936 4.323-4.323 4.323h-8.665c-2.388 0-4.323-1.936-4.323-4.323v-7.449c0-1.909 1.237-3.529 2.953-4.102 0.107-0.036 0.192-0.121 0.228-0.229l0.743-2.197c0.082-0.245 0.398-0.311 0.572-0.12l2.004 2.194c0.072 0.080 0.172 0.131 0.28 0.131h3.72c0.108 0 0.207-0.051 0.28-0.131l0.001-0.001 2.003-2.193c0.174-0.191 0.49-0.125 0.573 0.12l0.738 2.186c0.037 0.109 0.122 0.194 0.231 0.23 1.732 0.563 2.986 2.191 2.986 4.112z"></path>
<path fill="none" stroke="#fff" style="stroke: var(--color1, #fff)" stroke-linejoin="miter" stroke-linecap="butt" stroke-miterlimit="10" stroke-width="1.28" d="M16.303 19.356c1.796 0 3.253-1.456 3.253-3.253s-1.456-3.252-3.253-3.252c-1.796 0-3.252 1.456-3.252 3.252s1.456 3.253 3.252 3.253z"></path>
<path fill="none" stroke="#fff" style="stroke: var(--color1, #fff)" stroke-linejoin="miter" stroke-linecap="butt" stroke-miterlimit="10" stroke-width="1.28" d="M21.227 12.448c0.364 0 0.659-0.295 0.659-0.659s-0.295-0.659-0.659-0.659c-0.364 0-0.659 0.295-0.659 0.659s0.295 0.659 0.659 0.659z"></path>
</symbol>
<symbol id="icon-icons-3" viewBox="0 0 32 32">
<path fill="none" stroke="#fff" style="stroke: var(--color1, #fff)" stroke-linejoin="miter" stroke-linecap="butt" stroke-miterlimit="10" stroke-width="1.28" d="M25.463 15.353c-0.043-0.794-0.148-1.525-0.286-2.185-0.168-0.799-0.382-1.494-0.593-2.067-0.191-0.519-0.616-0.915-1.145-1.073-0.339-0.101-0.701-0.2-1.086-0.296l-0.877-2.564c-0.089-0.26-0.427-0.326-0.608-0.119l-1.817 2.081c-0.821-0.096-1.695-0.157-2.617-0.169-1.108-0.014-2.153 0.044-3.123 0.15l-1.873-2.148c-0.181-0.207-0.519-0.141-0.607 0.119l-0.898 2.624c-0.409 0.102-0.794 0.207-1.152 0.313-0.546 0.16-0.98 0.577-1.163 1.117-0.421 1.236-0.843 2.988-0.829 5.103 0.012 2.028 0.419 3.711 0.829 4.917 0.184 0.539 0.621 0.954 1.167 1.113 1.879 0.548 4.465 1.074 7.554 1.045 2.879-0.026 5.299-0.528 7.095-1.053 0.533-0.156 0.96-0.556 1.152-1.077 0.446-1.214 0.914-2.983 0.898-5.142-0.002-0.235-0.009-0.465-0.022-0.689zM18.39 16.447l-3.595 2.077c-0.239 0.137-0.537-0.034-0.537-0.31v-4.152c0-0.276 0.298-0.447 0.537-0.31l3.595 2.077c0.239 0.137 0.239 0.481 0 0.618z"></path>
<path fill="none" stroke="#fff" style="stroke: var(--color1, #fff)" stroke-linejoin="miter" stroke-linecap="butt" stroke-miterlimit="10" stroke-width="1.28" d="M18.39 16.447l-3.595 2.077c-0.239 0.137-0.537-0.034-0.537-0.31v-4.152c0-0.276 0.298-0.447 0.537-0.31l3.595 2.077c0.239 0.137 0.239 0.481 0 0.618z"></path>
</symbol>
</defs>
</svg>
